<svg width="39" height="39" viewBox="0 0 39 39" fill="none" xmlns="http://www.w3.org/2000/svg">
<rect x="1.125" y="1.125" width="37.5" height="37.5" rx="18.75" fill="#F78E48"/>
<rect x="1.125" y="1.125" width="37.5" height="37.5" rx="18.75" stroke="#EBEBEB" stroke-width="0.75"/>
<path d="M33.8884 16.6128C33.7722 16.6128 33.6756 16.5228 33.6648 16.4071C33.0001 9.31679 27.0724 3.75 19.875 3.75C12.6779 3.75 6.74994 9.31679 6.08524 16.4071C6.07439 16.5228 5.97784 16.6128 5.86162 16.6128C4.69533 16.6128 3.75 17.5163 3.75 18.6305V22.6659C3.75 23.7802 4.69533 24.6836 5.86162 24.6836C7.7567 24.6836 9.29297 23.1474 9.29297 21.2523V17.6726C9.29297 17.0873 8.81851 16.6128 8.23324 16.6128C7.61245 16.6128 7.12084 16.08 7.22791 15.4685C8.29214 9.39081 13.5554 4.75885 19.875 4.75885C26.1946 4.75885 31.4581 9.39082 32.5221 15.4685C32.6292 16.08 32.1376 16.6128 31.5168 16.6128C30.9315 16.6128 30.457 17.0873 30.457 17.6726V23.8824C30.457 24.3249 30.8157 24.6836 31.2582 24.6836C31.7949 24.6836 32.1774 25.2016 31.9544 25.6898C31.444 26.8074 30.4687 28.2804 28.653 29.3193C27.8609 29.7726 26.8344 29.2234 25.9219 29.2234C25.0872 29.2234 24.4102 29.9011 24.4102 30.7367C24.4102 31.5723 25.0872 32.25 25.9219 32.25C27.2376 32.25 28.2298 30.7543 29.3513 30.0664C31.7616 28.5882 32.8064 26.3973 33.2237 25.1733C33.3217 24.8861 33.5849 24.6836 33.8884 24.6836C35.0547 24.6836 36 23.7802 36 22.6659V18.6305C36 17.5163 35.0547 16.6128 33.8884 16.6128Z" fill="white"/>
<path d="M25.1829 25.2565C25.5599 24.8848 25.9405 24.5094 26.321 24.1323C26.7798 23.6836 26.8191 23.0673 26.4204 22.5629L26.0927 22.1459C25.9403 21.952 25.9157 21.6897 26.0116 21.4625C26.1046 21.2423 26.301 21.0776 26.5377 21.0443C26.7325 21.0169 26.9275 20.9892 27.1223 20.9614C27.7423 20.8734 28.1586 20.4083 28.1586 19.8038V18.166C28.1586 17.5619 27.7412 17.0971 27.1199 17.0089L26.6003 16.9353C26.3245 16.8962 26.0985 16.7078 25.9879 16.4521C25.874 16.1888 25.8939 15.8789 26.0666 15.6498L26.3481 15.2764C26.7378 14.7649 26.6829 14.1483 26.2085 13.7063C25.8238 13.3397 25.433 12.9689 25.0407 12.5978C24.5895 12.1724 23.9289 12.1338 23.4283 12.5025C23.4262 12.5041 23.4244 12.5054 23.4223 12.507C23.3959 12.5264 23.189 12.6781 22.9836 12.829C22.7863 12.974 22.5243 12.9965 22.2966 12.9064C22.0607 12.8131 21.8855 12.6084 21.8474 12.3576C21.8103 12.1137 21.7727 11.8684 21.7677 11.8355C21.7673 11.8328 21.7669 11.8304 21.7665 11.8276C21.676 11.2272 21.1944 10.8242 20.567 10.8242H18.8843C18.2609 10.8242 17.7791 11.2228 17.6844 11.8173C17.684 11.8199 17.6837 11.8222 17.6833 11.8248C17.6788 11.8548 17.6466 12.0684 17.6136 12.2886C17.5697 12.5815 17.3623 12.8215 17.088 12.9332C16.8241 13.0406 16.5216 13.0191 16.2887 12.8549C16.1589 12.7633 16.0252 12.6693 15.8869 12.5722C15.3847 12.2199 14.7323 12.2672 14.2933 12.6901C14.0421 12.9348 13.2559 13.7126 13.1428 13.8245C13.1334 13.8338 13.1244 13.8426 13.1151 13.852C12.6719 14.3003 12.6378 14.908 13.0297 15.4058C13.0306 15.4068 13.0313 15.4078 13.0321 15.4089C13.0472 15.4281 13.2077 15.6324 13.3584 15.8244C13.5108 16.0183 13.5341 16.2834 13.4384 16.5107C13.3458 16.7305 13.1514 16.8922 12.9153 16.9257L12.3299 17.0087C11.7097 17.0958 11.293 17.5647 11.293 18.1757V19.7946C11.293 20.4068 11.7122 20.8757 12.3361 20.9618L12.8521 21.0347C13.127 21.0735 13.3531 21.2622 13.4634 21.5169C13.5779 21.7811 13.557 22.0911 13.3838 22.3211C13.2519 22.4964 13.1248 22.6654 13.1057 22.6908C13.1039 22.6932 13.1023 22.6953 13.1004 22.6978C12.7116 23.2115 12.7638 23.8094 13.237 24.2592C13.4918 24.5017 14.1944 25.1672 14.3706 25.3341C14.3978 25.3598 14.4247 25.3855 14.4529 25.41C14.7546 25.6718 15.0607 25.7282 15.2685 25.7282C15.5379 25.7282 15.7944 25.639 16.0294 25.4628L16.4686 25.1399C16.6655 24.9953 16.9251 24.9727 17.1522 25.0627C17.3886 25.1564 17.5661 25.3624 17.604 25.6138C17.6419 25.8648 17.6814 26.1242 17.6831 26.1355C17.6832 26.1361 17.6832 26.1362 17.6833 26.1368C17.7763 26.7405 18.2592 27.1458 18.8846 27.1458H20.5677C21.1919 27.1458 21.6738 26.7455 21.7671 26.1488C21.7909 25.9923 21.8146 25.8365 21.8381 25.6809C21.8822 25.3881 22.0856 25.1499 22.3598 25.0381C22.6236 24.9306 22.9296 24.9501 23.1622 25.1146C23.2757 25.1949 23.39 25.2758 23.4654 25.3291C23.5237 25.3704 23.5813 25.4129 23.6426 25.4497C24.1485 25.7533 24.76 25.6806 25.1829 25.2565ZM19.7259 22.4998C17.7231 22.4998 16.094 20.9233 16.094 18.9856C16.094 17.0476 17.7234 15.4713 19.7259 15.4713C21.7289 15.4713 23.3582 17.0476 23.3582 18.9856C23.3582 20.9233 21.7289 22.4998 19.7259 22.4998Z" fill="white"/>
<path d="M19.7251 16.2627C18.3754 16.2627 17.2773 17.3609 17.2773 18.711C17.2773 20.0612 18.3754 21.1592 19.7251 21.1592C21.0752 21.1592 22.1738 20.0612 22.1738 18.711C22.1738 17.3609 21.0752 16.2627 19.7251 16.2627Z" fill="white"/>
</svg>
